<?xml version="1.0" encoding="UTF-8" standalone="no"?>
<!-- Created with Inkscape (http://www.inkscape.org/) -->

<svg
   xmlns:ns1="http://www.iki.fi/pav/software/textext/"
   xmlns:dc="http://purl.org/dc/elements/1.1/"
   xmlns:cc="http://creativecommons.org/ns#"
   xmlns:rdf="http://www.w3.org/1999/02/22-rdf-syntax-ns#"
   xmlns:svg="http://www.w3.org/2000/svg"
   xmlns="http://www.w3.org/2000/svg"
   xmlns:sodipodi="http://sodipodi.sourceforge.net/DTD/sodipodi-0.dtd"
   xmlns:inkscape="http://www.inkscape.org/namespaces/inkscape"
   sodipodi:docname="dataprojection.svg"
   inkscape:version="0.92.4 (unknown)"
   id="svg8"
   version="1.1"
   viewBox="0 0 210 297"
   height="297mm"
   width="210mm">
  <defs
     id="defs2">
    <marker
       inkscape:stockid="Arrow1Lend"
       orient="auto"
       refY="0.0"
       refX="0.0"
       id="Arrow1Lend"
       style="overflow:visible;"
       inkscape:isstock="true">
      <path
         id="path945"
         d="M 0.0,0.0 L 5.0,-5.0 L -12.5,0.0 L 5.0,5.0 L 0.0,0.0 z "
         style="fill-rule:evenodd;stroke:#000000;stroke-width:1pt;stroke-opacity:1;fill:#000000;fill-opacity:1"
         transform="scale(0.8) rotate(180) translate(12.5,0)" />
    </marker>
  </defs>
  <sodipodi:namedview
     id="base"
     pagecolor="#ffffff"
     bordercolor="#666666"
     borderopacity="1.0"
     inkscape:pageopacity="0.0"
     inkscape:pageshadow="2"
     inkscape:zoom="7.919596"
     inkscape:cx="174.18163"
     inkscape:cy="707.71842"
     inkscape:document-units="mm"
     inkscape:current-layer="layer1"
     showgrid="false"
     inkscape:snap-smooth-nodes="true"
     inkscape:window-width="3840"
     inkscape:window-height="1965"
     inkscape:window-x="0"
     inkscape:window-y="55"
     inkscape:window-maximized="1" />
  <metadata
     id="metadata5">
    <rdf:RDF>
      <cc:Work
         rdf:about="">
        <dc:format>image/svg+xml</dc:format>
        <dc:type
           rdf:resource="http://purl.org/dc/dcmitype/StillImage" />
        <dc:title />
      </cc:Work>
    </rdf:RDF>
  </metadata>
  <g
     inkscape:label="Layer 1"
     inkscape:groupmode="layer"
     id="layer1">
    <circle
       id="path3713"
       cx="44.601189"
       cy="129.36755"
       r="1.8898809"
       style="stroke-width:0.26458332" />
    <circle
       id="path3713-3"
       cx="130.40178"
       cy="149.2113"
       r="1.8898809"
       style="stroke-width:0.26458332" />
    <path
       style="fill:none;stroke:#000000;stroke-width:0.26499999;stroke-linecap:butt;stroke-linejoin:miter;stroke-miterlimit:4;stroke-dasharray:none;stroke-opacity:1"
       d="m 44.60119,129.17857 c 0,0 14.528127,-9.60428 22.300596,-8.12649 18.193719,3.45921 28.605744,34.52458 41.577374,36.85268 12.97163,2.3281 21.92262,-8.50446 21.92262,-8.50446"
       id="path3730"
       inkscape:connector-curvature="0"
       sodipodi:nodetypes="cazc" />
    <path
       sodipodi:type="star"
       style="stroke-width:0.26499999;stroke-miterlimit:4;stroke-dasharray:none"
       id="path4539"
       sodipodi:sides="5"
       sodipodi:cx="111.84315"
       sodipodi:cy="108.1253"
       sodipodi:r1="2.035464"
       sodipodi:r2="1.0177321"
       sodipodi:arg1="1.1902899"
       sodipodi:arg2="1.8186085"
       inkscape:flatsided="false"
       inkscape:rounded="0"
       inkscape:randomized="0"
       d="m 112.5991,110.01518 -1.00559,-0.90324 -1.31414,0.31632 0.54828,-1.23549 -0.70693,-1.15208 1.34445,0.13967 0.87724,-1.02835 0.28263,1.32181 1.24909,0.51653 -1.16977,0.67725 z"
       inkscape:transform-center-x="-0.15428034"
       inkscape:transform-center-y="-0.04170243" />
    <path
       style="fill:none;stroke:#000000;stroke-width:0.26458332;stroke-linecap:butt;stroke-linejoin:miter;stroke-miterlimit:4;stroke-dasharray:2.11666654, 1.05833327;stroke-dashoffset:0;stroke-opacity:1"
       d="M 111.59352,108.05361 C 83.896,133.21368 83.896,133.21368 83.896,133.21368"
       id="path4541"
       inkscape:connector-curvature="0" />
    <path
       style="fill:none;stroke:#000000;stroke-width:0.26458332px;stroke-linecap:butt;stroke-linejoin:miter;stroke-opacity:1"
       d="m 85.7267,131.6938 1.469983,1.73725 -1.469983,1.20271"
       id="path4543"
       inkscape:connector-curvature="0" />
    <g
       id="g864"
       ns1:jacobian_sqrt="0.352778"
       inkscapeversion="0.92.4"
       ns1:alignment="middle center"
       ns1:scale="1.0"
       ns1:preamble="/home/cbra009/.config/inkscape/extensions/textext/default_packages.tex"
       ns1:text="$\\vectr{z}^{d}$"
       ns1:pdfconverter="pdf2svg"
       ns1:texconverter="pdflatex"
       ns1:version="0.10.2"
       transform="matrix(0.352778,0,0,0.352778,94.59152,68.044805)">
      <g
         id="surface1">
        <g
           id="g857"
           style="fill:#000000;fill-opacity:1">
          <path
             id="path855"
             transform="translate(57.464,115.769)"
             d="m 2.40625,-3.40625 c 0.140625,0 0.265625,0 0.40625,0 0.390625,-0.015625 0.890625,-0.046875 1.28125,-0.0625 -0.28125,0.265625 -0.4375,0.421875 -1.4375,1.1875 -2.015625,1.53125 -2.234375,2.1875 -2.234375,2.21875 0,0.140625 0.140625,0.140625 0.21875,0.140625 0.171875,0 0.171875,-0.015625 0.25,-0.109375 0.359375,-0.5 0.71875,-0.5625 0.890625,-0.5625 0.265625,0 0.484375,0.171875 0.640625,0.28125 0.3125,0.21875 0.5625,0.390625 0.9375,0.390625 1.109375,0 1.84375,-1.21875 1.84375,-1.59375 0,-0.140625 -0.171875,-0.140625 -0.234375,-0.140625 -0.078125,0 -0.1875,0 -0.21875,0.09375 -0.078125,0.1875 -0.1875,0.4375 -0.859375,0.515625 -0.046875,0.015625 -2,0.09375 -2.21875,0.09375 0.28125,-0.265625 0.4375,-0.421875 1.453125,-1.1875 2.015625,-1.53125 2.234375,-2.1875 2.234375,-2.21875 C 5.359375,-4.5 5.21875,-4.5 5.140625,-4.5 c -0.15625,0 -0.171875,0 -0.234375,0.09375 -0.234375,0.34375 -0.4375,0.578125 -0.671875,0.578125 -0.25,0 -0.46875,-0.15625 -0.703125,-0.3125 C 3.296875,-4.328125 3.046875,-4.5 2.671875,-4.5 c -0.875,0 -1.453125,0.875 -1.453125,1.1875 0,0.140625 0.171875,0.140625 0.25,0.140625 0.09375,0 0.203125,0 0.21875,-0.125 C 1.828125,-3.375 1.90625,-3.375 2.203125,-3.40625 Z m 0,0"
             style="stroke:none;stroke-width:0"
             inkscape:connector-curvature="0" />
        </g>
        <g
           id="g861"
           style="fill:#000000;fill-opacity:1">
          <path
             id="path859"
             transform="translate(63.414,112.154)"
             d="M 3.984375,-4.625 C 3.984375,-4.640625 4,-4.734375 4,-4.734375 4,-4.78125 3.984375,-4.84375 3.890625,-4.84375 3.75,-4.84375 3.171875,-4.78125 3,-4.765625 c -0.046875,0 -0.15625,0.015625 -0.15625,0.15625 0,0.09375 0.109375,0.09375 0.1875,0.09375 0.328125,0 0.328125,0.0625 0.328125,0.109375 0,0.046875 0,0.09375 -0.015625,0.15625 L 2.9375,-2.65625 c -0.140625,-0.234375 -0.375,-0.421875 -0.71875,-0.421875 -0.890625,0 -1.796875,0.984375 -1.796875,1.984375 0,0.6875 0.453125,1.15625 1.0625,1.15625 0.375,0 0.703125,-0.203125 0.984375,-0.484375 C 2.59375,0 3,0.0625 3.1875,0.0625 c 0.25,0 0.421875,-0.140625 0.546875,-0.359375 0.15625,-0.28125 0.25,-0.671875 0.25,-0.703125 0,-0.09375 -0.09375,-0.09375 -0.109375,-0.09375 -0.109375,0 -0.109375,0.03125 -0.15625,0.21875 C 3.625,-0.53125 3.5,-0.125 3.203125,-0.125 3.03125,-0.125 2.96875,-0.28125 2.96875,-0.46875 c 0,-0.125 0.015625,-0.1875 0.046875,-0.28125 z M 2.5,-0.875 C 2.453125,-0.671875 2.296875,-0.53125 2.140625,-0.40625 2.078125,-0.34375 1.796875,-0.125 1.5,-0.125 c -0.265625,0 -0.515625,-0.1875 -0.515625,-0.671875 0,-0.375 0.203125,-1.140625 0.375,-1.421875 0.3125,-0.5625 0.671875,-0.65625 0.859375,-0.65625 0.484375,0 0.625,0.53125 0.625,0.609375 0,0.015625 -0.015625,0.078125 -0.015625,0.09375 z m 0,0"
             style="stroke:none;stroke-width:0"
             inkscape:connector-curvature="0" />
        </g>
      </g>
    </g>
    <g
       id="g911"
       ns1:jacobian_sqrt="0.352778"
       inkscapeversion="0.92.4"
       ns1:alignment="middle center"
       ns1:scale="1.0"
       ns1:preamble="/home/cbra009/.config/inkscape/extensions/textext/default_packages.tex"
       ns1:text="$\\fnof{\\vectr{z}}{\\vectr{\\xi}^{d}}$"
       ns1:pdfconverter="pdf2svg"
       ns1:texconverter="pdflatex"
       ns1:version="0.10.2"
       transform="matrix(0.352778,0,0,0.352778,52.771303,94.181353)">
      <g
         id="g909">
        <g
           id="g891"
           style="fill:#000000;fill-opacity:1">
          <path
             id="path889"
             transform="translate(57.464,117.264)"
             d="m 2.40625,-3.40625 c 0.140625,0 0.265625,0 0.40625,0 0.390625,-0.015625 0.890625,-0.046875 1.28125,-0.0625 -0.28125,0.265625 -0.4375,0.421875 -1.4375,1.1875 -2.015625,1.53125 -2.234375,2.1875 -2.234375,2.21875 0,0.140625 0.140625,0.140625 0.21875,0.140625 0.171875,0 0.171875,-0.015625 0.25,-0.109375 0.359375,-0.5 0.71875,-0.5625 0.890625,-0.5625 0.265625,0 0.484375,0.171875 0.640625,0.28125 0.3125,0.21875 0.5625,0.390625 0.9375,0.390625 1.109375,0 1.84375,-1.21875 1.84375,-1.59375 0,-0.140625 -0.171875,-0.140625 -0.234375,-0.140625 -0.078125,0 -0.1875,0 -0.21875,0.09375 -0.078125,0.1875 -0.1875,0.4375 -0.859375,0.515625 -0.046875,0.015625 -2,0.09375 -2.21875,0.09375 0.28125,-0.265625 0.4375,-0.421875 1.453125,-1.1875 2.015625,-1.53125 2.234375,-2.1875 2.234375,-2.21875 C 5.359375,-4.5 5.21875,-4.5 5.140625,-4.5 c -0.15625,0 -0.171875,0 -0.234375,0.09375 -0.234375,0.34375 -0.4375,0.578125 -0.671875,0.578125 -0.25,0 -0.46875,-0.15625 -0.703125,-0.3125 C 3.296875,-4.328125 3.046875,-4.5 2.671875,-4.5 c -0.875,0 -1.453125,0.875 -1.453125,1.1875 0,0.140625 0.171875,0.140625 0.25,0.140625 0.09375,0 0.203125,0 0.21875,-0.125 C 1.828125,-3.375 1.90625,-3.375 2.203125,-3.40625 Z m 0,0"
             style="stroke:none;stroke-width:0"
             inkscape:connector-curvature="0" />
        </g>
        <g
           id="g895"
           style="fill:#000000;fill-opacity:1">
          <path
             id="path893"
             transform="translate(65.074,106.205)"
             d="M 5.140625,17.421875 C 5.15625,17.4375 5.25,17.53125 5.25,17.53125 h 0.21875 c 0.03125,0 0.109375,0 0.109375,-0.09375 0,-0.04687 -0.015625,-0.0625 -0.03125,-0.09375 -0.359375,-0.359375 -0.90625,-0.90625 -1.515625,-2 -1.078125,-1.921875 -1.484375,-4.375 -1.484375,-6.765625 0,-4.4375 1.265625,-7.03125 3,-8.796875 0.03125,-0.03125 0.03125,-0.0625 0.03125,-0.078125 0,-0.109375 -0.0625,-0.109375 -0.1875,-0.109375 -0.125,0 -0.140625,0 -0.234375,0.09375 C 4.203125,0.5 3.140625,1.890625 2.453125,3.984375 2.03125,5.296875 1.796875,6.90625 1.796875,8.5625 c 0,2.359375 0.421875,5.03125 1.984375,7.34375 0.28125,0.390625 0.640625,0.796875 0.640625,0.8125 C 4.53125,16.84375 4.671875,17 4.75,17.0625 Z m 0,0"
             style="stroke:none;stroke-width:0"
             inkscape:connector-curvature="0" />
        </g>
        <g
           id="g899"
           style="fill:#000000;fill-opacity:1">
          <path
             id="path897"
             transform="translate(71.024,117.264)"
             d="m 2.328125,-3.328125 c -0.0625,-0.15625 -0.09375,-0.34375 -0.09375,-0.515625 0,-0.515625 0.296875,-1.28125 0.84375,-1.65625 0.21875,0.296875 0.5,0.296875 0.734375,0.296875 0.28125,0 1.078125,0 1.078125,-0.53125 0,-0.421875 -0.53125,-0.421875 -0.953125,-0.421875 -0.09375,0 -0.34375,0 -0.625,0.03125 0,-0.3125 0.0625,-0.53125 0.0625,-0.546875 0.03125,-0.09375 0.03125,-0.09375 0.03125,-0.125 0,-0.203125 -0.203125,-0.21875 -0.21875,-0.21875 -0.328125,0 -0.328125,0.59375 -0.328125,0.78125 0,0.0625 0,0.15625 0.015625,0.21875 C 1.625,-5.640625 1,-4.75 1,-3.984375 c 0,0.46875 0.265625,0.84375 0.53125,1.03125 C 0.484375,-2.25 0.234375,-1.3125 0.234375,-0.9375 c 0,0.8125 0.734375,1.21875 1.328125,1.421875 L 2.703125,0.875 c 0.25,0.078125 0.671875,0.234375 0.75,0.265625 0.078125,0.046875 0.125,0.140625 0.125,0.21875 0,0.03125 -0.015625,0.296875 -0.3125,0.296875 -0.0625,0 -0.546875,-0.015625 -1,-0.25 C 2.203125,1.359375 2.1875,1.359375 2.140625,1.359375 2,1.359375 1.9375,1.46875 1.9375,1.53125 c 0,0.25 0.84375,0.484375 1.34375,0.484375 0.78125,0 1.1875,-0.71875 1.1875,-1.1875 0,-0.421875 -0.296875,-0.671875 -0.484375,-0.75 C 3.84375,0.03125 2.90625,-0.296875 2.65625,-0.375 L 2,-0.59375 c -0.34375,-0.125 -0.921875,-0.328125 -0.921875,-0.796875 0,-0.59375 0.75,-1.296875 0.875,-1.296875 0.015625,0 0.015625,0 0.078125,0.015625 C 2.515625,-2.5 2.828125,-2.5 3.09375,-2.5 c 0.3125,0 1.140625,0 1.140625,-0.546875 0,-0.40625 -0.625,-0.40625 -0.953125,-0.40625 -0.1875,0 -0.5,0 -0.953125,0.125 z M 3.40625,-5.71875 c 0.203125,-0.078125 0.375,-0.078125 0.515625,-0.078125 0.3125,0 0.34375,0 0.5,0.0625 0,0.015625 0,0.015625 -0.03125,0.0625 C 4.296875,-5.5625 3.921875,-5.5625 3.8125,-5.5625 c -0.15625,0 -0.3125,0 -0.40625,-0.15625 z M 2.578125,-3 c 0.265625,-0.09375 0.5,-0.09375 0.65625,-0.09375 0.328125,0 0.359375,0 0.515625,0.0625 -0.015625,0.015625 -0.015625,0.046875 -0.03125,0.0625 C 3.625,-2.859375 3.25,-2.859375 3.125,-2.859375 c -0.15625,0 -0.375,0 -0.546875,-0.140625 z m 0,0"
             style="stroke:none;stroke-width:0"
             inkscape:connector-curvature="0" />
        </g>
        <g
           id="g903"
           style="fill:#000000;fill-opacity:1">
          <path
             id="path901"
             transform="translate(76.389,112.808)"
             d="M 3.984375,-4.625 C 3.984375,-4.640625 4,-4.734375 4,-4.734375 4,-4.78125 3.984375,-4.84375 3.890625,-4.84375 3.75,-4.84375 3.171875,-4.78125 3,-4.765625 c -0.046875,0 -0.15625,0.015625 -0.15625,0.15625 0,0.09375 0.109375,0.09375 0.1875,0.09375 0.328125,0 0.328125,0.0625 0.328125,0.109375 0,0.046875 0,0.09375 -0.015625,0.15625 L 2.9375,-2.65625 c -0.140625,-0.234375 -0.375,-0.421875 -0.71875,-0.421875 -0.890625,0 -1.796875,0.984375 -1.796875,1.984375 0,0.6875 0.453125,1.15625 1.0625,1.15625 0.375,0 0.703125,-0.203125 0.984375,-0.484375 C 2.59375,0 3,0.0625 3.1875,0.0625 c 0.25,0 0.421875,-0.140625 0.546875,-0.359375 0.15625,-0.28125 0.25,-0.671875 0.25,-0.703125 0,-0.09375 -0.09375,-0.09375 -0.109375,-0.09375 -0.109375,0 -0.109375,0.03125 -0.15625,0.21875 C 3.625,-0.53125 3.5,-0.125 3.203125,-0.125 3.03125,-0.125 2.96875,-0.28125 2.96875,-0.46875 c 0,-0.125 0.015625,-0.1875 0.046875,-0.28125 z M 2.5,-0.875 C 2.453125,-0.671875 2.296875,-0.53125 2.140625,-0.40625 2.078125,-0.34375 1.796875,-0.125 1.5,-0.125 c -0.265625,0 -0.515625,-0.1875 -0.515625,-0.671875 0,-0.375 0.203125,-1.140625 0.375,-1.421875 0.3125,-0.5625 0.671875,-0.65625 0.859375,-0.65625 0.484375,0 0.625,0.53125 0.625,0.609375 0,0.015625 -0.015625,0.078125 -0.015625,0.09375 z m 0,0"
             style="stroke:none;stroke-width:0"
             inkscape:connector-curvature="0" />
        </g>
        <g
           id="g907"
           style="fill:#000000;fill-opacity:1">
          <path
             id="path905"
             transform="translate(81.035,106.205)"
             d="m 4.140625,8.5625 c 0,-2.859375 -0.65625,-5.90625 -2.625,-8.140625 C 1.375,0.265625 1,-0.125 0.765625,-0.34375 c -0.0625,-0.0625 -0.09375,-0.0625 -0.21875,-0.0625 -0.09375,0 -0.1875,0 -0.1875,0.109375 0,0.03125 0.046875,0.078125 0.0625,0.09375 0.328125,0.359375 0.875,0.90625 1.484375,2 1.078125,1.90625 1.484375,4.375 1.484375,6.765625 0,4.328125 -1.203125,6.96875 -2.984375,8.796875 C 0.375,17.375 0.359375,17.40625 0.359375,17.4375 c 0,0.09375 0.09375,0.09375 0.1875,0.09375 0.125,0 0.15625,0 0.234375,-0.07813 0.953125,-0.8125 2.015625,-2.203125 2.703125,-4.296875 0.4375,-1.375 0.65625,-2.984375 0.65625,-4.59375 z m 0,0"
             style="stroke:none;stroke-width:0"
             inkscape:connector-curvature="0" />
        </g>
      </g>
    </g>
    <path
       style="fill:none;stroke:#000000;stroke-width:0.26499999;stroke-linecap:butt;stroke-linejoin:miter;stroke-miterlimit:4;stroke-dasharray:none;stroke-opacity:1;marker-end:url(#Arrow1Lend)"
       d="m 45.150477,124.18102 c 0,0 14.528128,-9.60429 22.300596,-8.12649 m 0,0 c 6.419317,0.46389 12.485913,7.26358 19.764534,13.50512"
       id="path3730-3"
       inkscape:connector-curvature="0"
       sodipodi:nodetypes="cccc" />
    <g
       id="g1564"
       ns1:jacobian_sqrt="0.352778"
       inkscapeversion="0.92.4"
       ns1:alignment="middle center"
       ns1:scale="1.0"
       ns1:preamble="/home/cbra009/.config/inkscape/extensions/textext/default_packages.tex"
       ns1:text="$\\vectr{\\xi}^{d}$"
       ns1:pdfconverter="pdf2svg"
       ns1:texconverter="pdflatex"
       ns1:version="0.10.2"
       transform="matrix(0.352778,0,0,0.352778,45.082468,73.39706)">
      <g
         id="g1562">
        <g
           id="g1556"
           style="fill:#000000;fill-opacity:1">
          <path
             id="path1554"
             transform="translate(57.464,115.769)"
             d="m 2.328125,-3.328125 c -0.0625,-0.15625 -0.09375,-0.34375 -0.09375,-0.515625 0,-0.515625 0.296875,-1.28125 0.84375,-1.65625 0.21875,0.296875 0.5,0.296875 0.734375,0.296875 0.28125,0 1.078125,0 1.078125,-0.53125 0,-0.421875 -0.53125,-0.421875 -0.953125,-0.421875 -0.09375,0 -0.34375,0 -0.625,0.03125 0,-0.3125 0.0625,-0.53125 0.0625,-0.546875 0.03125,-0.09375 0.03125,-0.09375 0.03125,-0.125 0,-0.203125 -0.203125,-0.21875 -0.21875,-0.21875 -0.328125,0 -0.328125,0.59375 -0.328125,0.78125 0,0.0625 0,0.15625 0.015625,0.21875 C 1.625,-5.640625 1,-4.75 1,-3.984375 c 0,0.46875 0.265625,0.84375 0.53125,1.03125 C 0.484375,-2.25 0.234375,-1.3125 0.234375,-0.9375 c 0,0.8125 0.734375,1.21875 1.328125,1.421875 L 2.703125,0.875 c 0.25,0.078125 0.671875,0.234375 0.75,0.265625 0.078125,0.046875 0.125,0.140625 0.125,0.21875 0,0.03125 -0.015625,0.296875 -0.3125,0.296875 -0.0625,0 -0.546875,-0.015625 -1,-0.25 C 2.203125,1.359375 2.1875,1.359375 2.140625,1.359375 2,1.359375 1.9375,1.46875 1.9375,1.53125 c 0,0.25 0.84375,0.484375 1.34375,0.484375 0.78125,0 1.1875,-0.71875 1.1875,-1.1875 0,-0.421875 -0.296875,-0.671875 -0.484375,-0.75 C 3.84375,0.03125 2.90625,-0.296875 2.65625,-0.375 L 2,-0.59375 c -0.34375,-0.125 -0.921875,-0.328125 -0.921875,-0.796875 0,-0.59375 0.75,-1.296875 0.875,-1.296875 0.015625,0 0.015625,0 0.078125,0.015625 C 2.515625,-2.5 2.828125,-2.5 3.09375,-2.5 c 0.3125,0 1.140625,0 1.140625,-0.546875 0,-0.40625 -0.625,-0.40625 -0.953125,-0.40625 -0.1875,0 -0.5,0 -0.953125,0.125 z M 3.40625,-5.71875 c 0.203125,-0.078125 0.375,-0.078125 0.515625,-0.078125 0.3125,0 0.34375,0 0.5,0.0625 0,0.015625 0,0.015625 -0.03125,0.0625 C 4.296875,-5.5625 3.921875,-5.5625 3.8125,-5.5625 c -0.15625,0 -0.3125,0 -0.40625,-0.15625 z M 2.578125,-3 c 0.265625,-0.09375 0.5,-0.09375 0.65625,-0.09375 0.328125,0 0.359375,0 0.515625,0.0625 -0.015625,0.015625 -0.015625,0.046875 -0.03125,0.0625 C 3.625,-2.859375 3.25,-2.859375 3.125,-2.859375 c -0.15625,0 -0.375,0 -0.546875,-0.140625 z m 0,0"
             style="stroke:none;stroke-width:0"
             inkscape:connector-curvature="0" />
        </g>
        <g
           id="g1560"
           style="fill:#000000;fill-opacity:1">
          <path
             id="path1558"
             transform="translate(62.829,111.314)"
             d="M 3.984375,-4.625 C 3.984375,-4.640625 4,-4.734375 4,-4.734375 4,-4.78125 3.984375,-4.84375 3.890625,-4.84375 3.75,-4.84375 3.171875,-4.78125 3,-4.765625 c -0.046875,0 -0.15625,0.015625 -0.15625,0.15625 0,0.09375 0.109375,0.09375 0.1875,0.09375 0.328125,0 0.328125,0.0625 0.328125,0.109375 0,0.046875 0,0.09375 -0.015625,0.15625 L 2.9375,-2.65625 c -0.140625,-0.234375 -0.375,-0.421875 -0.71875,-0.421875 -0.890625,0 -1.796875,0.984375 -1.796875,1.984375 0,0.6875 0.453125,1.15625 1.0625,1.15625 0.375,0 0.703125,-0.203125 0.984375,-0.484375 C 2.59375,0 3,0.0625 3.1875,0.0625 c 0.25,0 0.421875,-0.140625 0.546875,-0.359375 0.15625,-0.28125 0.25,-0.671875 0.25,-0.703125 0,-0.09375 -0.09375,-0.09375 -0.109375,-0.09375 -0.109375,0 -0.109375,0.03125 -0.15625,0.21875 C 3.625,-0.53125 3.5,-0.125 3.203125,-0.125 3.03125,-0.125 2.96875,-0.28125 2.96875,-0.46875 c 0,-0.125 0.015625,-0.1875 0.046875,-0.28125 z M 2.5,-0.875 C 2.453125,-0.671875 2.296875,-0.53125 2.140625,-0.40625 2.078125,-0.34375 1.796875,-0.125 1.5,-0.125 c -0.265625,0 -0.515625,-0.1875 -0.515625,-0.671875 0,-0.375 0.203125,-1.140625 0.375,-1.421875 0.3125,-0.5625 0.671875,-0.65625 0.859375,-0.65625 0.484375,0 0.625,0.53125 0.625,0.609375 0,0.015625 -0.015625,0.078125 -0.015625,0.09375 z m 0,0"
             style="stroke:none;stroke-width:0"
             inkscape:connector-curvature="0" />
        </g>
      </g>
    </g>
  </g>
</svg>
